<?xml version="1.0" encoding="UTF-8"?>
<svg id="Layer_2" data-name="Layer 2" xmlns="http://www.w3.org/2000/svg" viewBox="0 0 1920 1080">
  <defs>
    <style>
      .cls-1 {
        fill: #011638;
      }

      .cls-1, .cls-2, .cls-3 {
        stroke-width: 0px;
      }

      .cls-2 {
        fill: #f8f8f8;
      }

      .cls-3 {
        fill: #fdda00;
      }
    </style>
  </defs>
  <g>
    <g>
      <path class="cls-1" d="m1564.09,482.54c-1.27,3.81-2.6,7.6-3.99,11.37-28.24-1.96-47.17-5.55-47.17-9.67v-22.1l51.16,20.4Z"/>
      <path class="cls-1" d="m1663.42,449.11l-68.34,28.58c12.01-26.47,30.35-30.61,47.43-30.61,6.66,0,13.72.77,20.91,2.03Z"/>
      <path class="cls-1" d="m1705.14,459.17v25.07c0,6.2-43.02,11.24-96.1,11.24-6.87,0-13.57-.08-20.03-.24.39-1.47.79-2.9,1.19-4.28.6-.13,1.19-.32,1.77-.56l89.32-37.35c6.78,1.75,13.46,3.73,19.8,5.69,1.02.32,2.08.47,3.12.47.32,0,.63-.01.94-.04Z"/>
      <path class="cls-1" d="m1564.09,482.54c-1.27,3.81-2.6,7.6-3.99,11.37-28.24-1.96-47.17-5.55-47.17-9.67v-22.1l51.16,20.4Z"/>
      <path class="cls-1" d="m1663.42,449.11l-68.34,28.58c12.01-26.47,30.35-30.61,47.43-30.61,6.66,0,13.72.77,20.91,2.03Z"/>
      <path class="cls-1" d="m1705.14,459.17v25.07c0,6.2-43.02,11.24-96.1,11.24-6.87,0-13.57-.08-20.03-.24.39-1.47.79-2.9,1.19-4.28.6-.13,1.19-.32,1.77-.56l89.32-37.35c6.78,1.75,13.46,3.73,19.8,5.69,1.02.32,2.08.47,3.12.47.32,0,.63-.01.94-.04Z"/>
      <path class="cls-1" d="m1549.96,390.67c-12.34,0-28.12-2.71-48.02-8.25l100.49-40.51c-11.43,35.74-24.86,48.76-52.47,48.76Z"/>
      <path class="cls-1" d="m1663.42,449.11l-68.34,28.58c12.01-26.47,30.35-30.61,47.43-30.61,6.66,0,13.72.77,20.91,2.03Z"/>
      <path class="cls-1" d="m1549.96,390.67c-12.34,0-28.12-2.71-48.02-8.25l100.49-40.51c-11.43,35.74-24.86,48.76-52.47,48.76Z"/>
      <path class="cls-1" d="m1566.97,472.34l-54.04-21.54-10.53-4.2-80.27-32,53.62-21.61c.04,1.86.59,3.7,1.6,5.31,1.53,2.44,3.99,4.15,6.83,4.73,11.52,2.34,21.63,4.81,30.47,7.47,10.73,3.21,19.57,6.7,26.7,10.53,5.35,2.87,9.73,5.93,13.24,9.22,10.34,9.67,14.09,22.36,12.38,42.1Z"/>
      <path class="cls-1" d="m1663.42,449.11l-68.34,28.58c12.01-26.47,30.35-30.61,47.43-30.61,6.66,0,13.72.77,20.91,2.03Z"/>
      <path class="cls-1" d="m1771.84,403.77l-56.16,23.49-10.53,4.4-4.19,1.75h-.01c-17.17-3.71-31.03-7.78-41.96-12.39-7.68-3.22-13.91-6.72-18.84-10.53-4.47-3.44-7.87-7.16-10.3-11.2-8.09-13.41-7.43-32.28-.8-60.86l142.81,65.34Z"/>
      <path class="cls-1" d="m1705.14,445.05l-.94,3.62c-2.43-.75-4.85-1.49-7.24-2.19-5.61-1.65-11.12-3.17-16.51-4.5h-.01c-44.03-10.84-79.7-8.74-97.24,36.83-1.21,3.12-2.33,6.45-3.35,10-.58,1.95-1.12,3.97-1.63,6.07-.2.82-.4,1.64-.59,2.49-.65,2.42-1.35,5.08-2.1,7.95-11.54,44.83-32.92,141.27-41.91,179.81-18.87.03-37.71.06-56.56.07-19.36.01-38.72.01-58.09,0,24.65-15.77,58.24-41.25,89.83-80.16,29.05-35.78,47.08-71.41,58.37-100.14,1.4-3.56,2.7-7.03,3.89-10.35,1.01-2.79,1.95-5.5,2.82-8.11,1.18-3.53,2.25-6.89,3.21-10.06h0c.03-.11.05-.18.08-.26,2.62-24.36-1.74-41.82-17.08-55.1-4.43-3.83-9.77-7.33-16.14-10.53-13.99-7.06-32.88-12.76-57.69-17.79l.93-3.62c84.89,26.13,109.62,10.61,127.75-52.21,1.16-3.99,2.29-8.18,3.4-12.57,2.04-8.05,4.04-16.75,6.09-26.1l4.22,1.1c-2.58,8.81-4.92,17.06-6.93,24.82-1,3.83-1.93,7.54-2.77,11.13-8.04,34.47-8.33,58.05,5.96,75.25,3.15,3.81,7.03,7.31,11.69,10.53,11.11,7.71,26.69,13.92,47.76,19.32,5.48,1.4,11.34,2.75,17.59,4.06h.01c1.04.22,2.11.43,3.17.65Z"/>
    </g>
    <path class="cls-1" d="m164.21,630.72c.67-1.9,1.39-2.84,2.17-2.84.44,0,.89,1.17,1.34,3.51,3.57,18.16,12.7,31.32,27.42,39.45,13.26,7.25,32.21,10.87,56.84,10.87,21.95,0,40.51-5.07,55.67-15.21,16.27-10.92,24.41-25.24,24.41-42.96,0-14.49-6.69-24.46-20.06-29.92-5.68-2.34-13.77-4.46-24.24-6.35l-33.43-5.52c-12.04-2.01-21.62-3.9-28.75-5.68-10.03-2.56-18.33-5.63-24.91-9.19-16.27-8.69-24.41-21.79-24.41-39.28,0-6.91,2.01-14.15,6.02-21.73,4.57-8.69,11.14-16.49,19.73-23.4,9.92-7.91,21.9-14.04,35.94-18.39,16.05-5.13,34.27-7.69,54.66-7.69,12.04,0,25.91,1.78,41.62,5.35,16.49,3.79,29.48,8.42,38.95,13.87l-14.38,31.76c-.89,1.67-1.62,2.51-2.17,2.51s-.95-.89-1.17-2.67c0-.33-.06-.78-.17-1.34l-.67-5.68c-2.12-11.59-11.65-20.84-28.59-27.75-13.49-5.68-26.91-8.53-40.29-8.53-8.8,0-17.22.78-25.24,2.34-9.36,1.67-17.55,4.29-24.57,7.86-17.39,8.8-26.08,22.29-26.08,40.45,0,14.71,8.13,25.41,24.41,32.1,6.35,2.67,14.65,5.02,24.91,7.02l43.13,7.02c5.24,1,9.92,1.95,14.04,2.84,10.03,2.34,18.33,5.18,24.91,8.53,16.16,8.02,24.24,20.39,24.24,37.11,0,13.82-4.12,26.19-12.37,37.11-7.36,9.7-17.61,18-30.76,24.91-11.59,6.02-24.69,10.59-39.28,13.71-13.04,2.9-25.58,4.35-37.61,4.35-9.47,0-19.28-.78-29.42-2.34-8.69-1.23-17.66-3.07-26.91-5.52-7.58-1.9-15.32-4.18-23.24-6.85l-17.72-6.52,16.05-37.28Z"/>
    <path class="cls-1" d="m434.69,558.84h.67c4.79-9.03,9.47-16.77,14.04-23.24,5.46-7.58,11.2-13.87,17.22-18.89,13.82-11.7,30.09-17.55,48.81-17.55,23.29,0,42.29,7.63,57,22.9,14.49,15.05,21.73,34.38,21.73,58.01,0,16.27-3.62,31.32-10.87,45.14-6.8,12.93-16.33,24.18-28.59,33.77-24.3,19.06-52.83,28.59-85.59,28.59-8.47,0-17.39-.95-26.75-2.84-7.91-1.67-15.88-3.96-23.91-6.85l-7.02,44.3c-.33,2.9-.5,5.85-.5,8.86,0,9.14,5.63,14.26,16.88,15.38,2.67.33,4.01.89,4.01,1.67,0,1.45-.67,2.17-2.01,2.17-3.9,0-9.7-.28-17.39-.84-7.58-.45-13.32-.67-17.22-.67l-24.24,1.17c-3.12.22-5.91.33-8.36.33-2.23,0-3.34-.73-3.34-2.17,0-.67,1.28-1.34,3.84-2.01,6.46-2.12,10.92-5.24,13.37-9.36,3.34-5.58,6.41-16.94,9.19-34.1l24.57-142.09c1.56-10.59,2.34-18.67,2.34-24.24,0-8.92-3.96-15.1-11.87-18.56-1.67-.44-2.51-1.11-2.51-2.01,0-.56.61-1.17,1.84-1.84l43.13-9.53-8.53,54.5Zm-14.38,101.3c3.01,5.91,9.64,10.92,19.89,15.05,9.92,4.12,20.06,6.19,30.42,6.19,14.93,0,28.53-3.45,40.79-10.36,11.14-6.35,20.78-15.38,28.92-27.08,15.38-22.07,23.07-48.37,23.07-78.9,0-16.83-4.24-30.7-12.7-41.62-9.25-12.04-22.07-18.05-38.45-18.05-11.7,0-22.73,3.4-33.1,10.2-9.14,6.02-17.55,14.38-25.24,25.08-6.58,9.36-12.2,19.95-16.88,31.76-4.12,10.47-6.97,20.56-8.53,30.26l-8.19,57.51Z"/>
    <path class="cls-1" d="m776.38,521.39c18.5,15.05,27.75,34.05,27.75,57,0,31.54-11.59,57.95-34.77,79.24-22.51,20.73-49.65,31.09-81.41,31.09-23.07,0-43.24-7.02-60.51-21.06-18.5-15.05-27.75-34.05-27.75-57,0-31.54,11.53-57.95,34.6-79.24,22.51-20.73,49.65-31.09,81.41-31.09,23.18,0,43.41,7.02,60.68,21.06Zm-100.47-4.51c-10.36,6.24-19.11,15.1-26.25,26.58-6.46,10.25-11.37,22.29-14.71,36.11-3.01,12.48-4.51,25.47-4.51,38.95,0,19.73,4.57,35.11,13.71,46.14,9.81,11.93,24.41,17.89,43.8,17.89,15.05,0,28.31-3.45,39.79-10.36,10.47-6.24,19.28-15.1,26.41-26.58,6.46-10.25,11.31-22.23,14.54-35.94,3.01-12.59,4.51-25.63,4.51-39.12,0-19.73-4.51-35.11-13.54-46.14-9.81-11.93-24.46-17.89-43.97-17.89-14.94,0-28.2,3.45-39.79,10.36Z"/>
    <path class="cls-1" d="m804.13,522.23l1-6.85c11.14-.89,22.29-7.02,33.43-18.39,4.35-4.57,8.64-9.86,12.87-15.88,3.45-5.02,6.74-10.36,9.86-16.05.56-1.11.95-1.78,1.17-2.01.44-.67.95-1,1.5-1,.78,0,1.17.44,1.17,1.34,0,1.11-.17,2.06-.5,2.84l-9.19,47.14h34.27l-2.01,8.86h-33.94l-14.88,109.5c-1,9.47-1.5,16.83-1.5,22.07,0,8.58,1.45,14.88,4.35,18.89,1.78,2.56,5.24,5.07,10.36,7.52l2.67,1c.89.22,1.34.56,1.34,1,0,1.34-.89,2.01-2.67,2.01l-17.89-.67-16.72.67c-2.23,0-4.12-1.61-5.68-4.85-1.45-2.9-2.17-6.07-2.17-9.53,0-7.13.33-12.93,1-17.39l18.89-130.22h-26.75Z"/>
    <path class="cls-1" d="m916.74,477.26c.67-3.45,1-6.41,1-8.86,0-9.47-3.4-15.66-10.2-18.56-2.01-.89-3.01-1.67-3.01-2.34,0-.89.33-1.34,1-1.34l41.29-9.7-29.92,221.67c-.33,2.56-.5,4.68-.5,6.35,0,8.13,3.68,13.37,11.03,15.71,3.68,1.23,5.52,2.4,5.52,3.51,0,1.34-.95,2.01-2.84,2.01l-7.52-.33c-1.45,0-2.73-.06-3.84-.17-7.69-.33-14.6-.5-20.73-.5s-12.7.17-20.06.5l-10.53.5c-1.56,0-2.34-.67-2.34-2.01,0-.56,1-1.5,3.01-2.84,6.13-2.79,10.36-5.68,12.7-8.69,3.12-3.9,5.29-10.09,6.52-18.56l29.42-176.36Z"/>
    <path class="cls-1" d="m978.34,543.46l.5-4.18c0-9.14-3.68-15.1-11.03-17.89-1.56-.78-2.34-1.34-2.34-1.67,0-1,.78-1.67,2.34-2.01l41.12-11.03-19.56,148.28c-.67,4.12-1,7.75-1,10.87,0,4.57,1.78,8.42,5.35,11.53l4.35,3.18c.56.33,1.17.67,1.84,1,.89.44,1.39.73,1.5.84,1.78,1,2.67,1.78,2.67,2.34,0,.67-1,1-3.01,1l-39.12-.84-21.9.84c-1.56,0-2.34-.45-2.34-1.34,0-.78.56-1.45,1.67-2.01,7.24-4.01,11.92-7.52,14.04-10.53,3.34-4.57,5.96-12.82,7.86-24.74l17.05-103.64Zm24.07-94.95c9.14,0,13.71,4.79,13.71,14.38,0,10.92-6.3,16.38-18.89,16.38-9.14,0-13.71-4.79-13.71-14.38,0-10.92,6.29-16.38,18.89-16.38Z"/>
    <path class="cls-1" d="m1033.17,715.47c13.37,20.62,30.98,30.93,52.83,30.93,15.82,0,29.7-3.62,41.62-10.87,10.59-6.35,19.5-15.61,26.75-27.75,6.35-10.48,11.42-23.13,15.21-37.95,3.12-12.37,5.35-26.25,6.69-41.62l-.67-.67c-4.79,10.03-9.47,18.45-14.04,25.24-5.35,7.91-10.98,14.49-16.88,19.73-13.37,11.59-29.98,17.39-49.82,17.39-24.07,0-43.41-7.69-58.01-23.07-13.82-14.6-20.73-32.82-20.73-54.66,0-30.42,12.7-56.73,38.11-78.9,24.07-21.17,51.21-31.76,81.41-31.76,15.15,0,29.7,1.28,43.63,3.84,11.92,2.23,25.08,5.74,39.45,10.53-3.57,18.39-7.08,40.51-10.53,66.37l-10.7,84.75c-2.9,23.74-14.21,43.52-33.94,59.34-21.84,17.49-49.87,26.25-84.09,26.25-10.25,0-22.46-1.17-36.61-3.51-13.93-2.23-22.29-4.29-25.08-6.19l15.38-27.42Zm159.31-193.75c-9.47-4.46-18.33-7.8-26.58-10.03-9.47-2.67-18.56-4.01-27.25-4.01-15.05,0-28.7,3.51-40.96,10.53-11.03,6.46-20.56,15.6-28.59,27.42-14.82,22.07-22.23,48.48-22.23,79.24,0,16.61,4.29,30.37,12.87,41.29,9.25,11.7,21.51,17.55,36.78,17.55,13.71,0,25.97-3.51,36.78-10.53,9.36-6.13,17.66-14.93,24.91-26.41,6.02-9.81,11.31-21.56,15.88-35.27,3.45-10.47,6.57-22.68,9.36-36.61l9.03-53.16Z"/>
    <path class="cls-1" d="m1384.22,584.75c.67-4.79,1.17-8.69,1.5-11.7.33-4.57.5-8.75.5-12.54,0-33.32-15.83-49.98-47.48-49.98-16.83,0-32.6,8.02-47.31,24.07-13.82,14.93-22.23,31.43-25.24,49.48l-12.7,64.69c-.67,4.46-1,8.8-1,13.04,0,9.7,3.51,16.33,10.53,19.89,1.89.89,2.84,1.67,2.84,2.34,0,.56-.45,1-1.34,1.34-.56.22-1.28.33-2.17.33l-15.21-.67c-1.56-.11-3.01-.17-4.35-.17h-17.39l-18.89.84c-1.34,0-2.01-.56-2.01-1.67,0-1,1-1.9,3.01-2.67,11.26-3.34,18.11-14.32,20.56-32.93l25.91-166c.22-1.78.44-3.12.67-4.01.33-3.12.5-5.35.5-6.69,0-9.7-2.62-15.82-7.86-18.39-3.23-1.45-4.85-2.73-4.85-3.84,0-.78.5-1.34,1.5-1.67l1.5-.67,40.12-10.7-19.73,124.04h.67c8.36-17.83,19.61-31.93,33.77-42.29,15.27-11.14,32.32-16.72,51.15-16.72,17.39,0,31.7,4.29,42.96,12.87,12.7,9.81,18.78,23.46,18.22,40.96v7.19l-.67,8.19-11.2,90.61c-.33,2.23-.5,4.24-.5,6.02,0,7.47,3.45,12.26,10.36,14.38,1.78.67,2.67,1.67,2.67,3.01,0,.67-.78,1-2.34,1l-20.9-.84h-19.89l-14.04.84c-2.23,0-3.34-.56-3.34-1.67,0-1.23,1.73-2.62,5.18-4.18,8.25-4.24,14.26-18.5,18.05-42.8l8.19-52.32Z"/>
    <path class="cls-1" d="m328.38,625.44l-.68,2.65c-73.45-22.61-85.47-2.67-100.6,66.62l-3.1-.8c19.98-68.11,19.63-91.55-56.06-106.85l.68-2.65c21.59,5.38,49.37,15.59,68.92,3.54,21.23-11.73,25.21-47.79,31.69-70.17l24.72-107.93,6.56,2.19-28.18,106.53c-20.13,68.11-19.09,91.62,56.06,106.87Z"/>
    <path class="cls-1" d="m1041.86,563.81l.95-2.57c70.73,30.06,84.74,11.46,106.93-55.9l3,1.12c-26.89,65.69-28.96,89.04,44.75,112.06l-.95,2.57c-20.92-7.57-47.5-20.6-68.19-10.63-22.32,9.48-30.01,44.94-38.75,66.53l-35.71,104.81-6.3-2.86,39-103.06c27.04-65.68,28.42-89.16-44.75-112.08Z"/>
  </g>
  <g>
    <g>
      <path class="cls-3" d="m1564.09,482.54c-1.27,3.81-2.6,7.6-3.99,11.37-28.24-1.96-47.17-5.55-47.17-9.67v-22.1l51.16,20.4Z"/>
      <path class="cls-3" d="m1663.42,449.11l-68.34,28.58c12.01-26.47,30.35-30.61,47.43-30.61,6.66,0,13.72.77,20.91,2.03Z"/>
      <path class="cls-3" d="m1705.14,459.17v25.07c0,6.2-43.02,11.24-96.1,11.24-6.87,0-13.57-.08-20.03-.24.39-1.47.79-2.9,1.19-4.28.6-.13,1.19-.32,1.77-.56l89.32-37.35c6.78,1.75,13.46,3.73,19.8,5.69,1.02.32,2.08.47,3.12.47.32,0,.63-.01.94-.04Z"/>
      <path class="cls-3" d="m1564.09,482.54c-1.27,3.81-2.6,7.6-3.99,11.37-28.24-1.96-47.17-5.55-47.17-9.67v-22.1l51.16,20.4Z"/>
      <path class="cls-3" d="m1663.42,449.11l-68.34,28.58c12.01-26.47,30.35-30.61,47.43-30.61,6.66,0,13.72.77,20.91,2.03Z"/>
      <path class="cls-3" d="m1705.14,459.17v25.07c0,6.2-43.02,11.24-96.1,11.24-6.87,0-13.57-.08-20.03-.24.39-1.47.79-2.9,1.19-4.28.6-.13,1.19-.32,1.77-.56l89.32-37.35c6.78,1.75,13.46,3.73,19.8,5.69,1.02.32,2.08.47,3.12.47.32,0,.63-.01.94-.04Z"/>
      <path class="cls-3" d="m1549.96,390.67c-12.34,0-28.12-2.71-48.02-8.25l100.49-40.51c-11.43,35.74-24.86,48.76-52.47,48.76Z"/>
      <path class="cls-3" d="m1663.42,449.11l-68.34,28.58c12.01-26.47,30.35-30.61,47.43-30.61,6.66,0,13.72.77,20.91,2.03Z"/>
      <path class="cls-3" d="m1549.96,390.67c-12.34,0-28.12-2.71-48.02-8.25l100.49-40.51c-11.43,35.74-24.86,48.76-52.47,48.76Z"/>
      <path class="cls-3" d="m1566.97,472.34l-54.04-21.54-10.53-4.2-80.27-32,53.62-21.61c.04,1.86.59,3.7,1.6,5.31,1.53,2.44,3.99,4.15,6.83,4.73,11.52,2.34,21.63,4.81,30.47,7.47,10.73,3.21,19.57,6.7,26.7,10.53,5.35,2.87,9.73,5.93,13.24,9.22,10.34,9.67,14.09,22.36,12.38,42.1Z"/>
      <path class="cls-3" d="m1663.42,449.11l-68.34,28.58c12.01-26.47,30.35-30.61,47.43-30.61,6.66,0,13.72.77,20.91,2.03Z"/>
      <path class="cls-3" d="m1771.84,403.77l-56.16,23.49-10.53,4.4-4.19,1.75h-.01c-17.17-3.71-31.03-7.78-41.96-12.39-7.68-3.22-13.91-6.72-18.84-10.53-4.47-3.44-7.87-7.16-10.3-11.2-8.09-13.41-7.43-32.28-.8-60.86l142.81,65.34Z"/>
      <path class="cls-2" d="m1705.14,445.05l-.94,3.62c-2.43-.75-4.85-1.49-7.24-2.19-5.61-1.65-11.12-3.17-16.51-4.5h-.01c-44.03-10.84-79.7-8.74-97.24,36.83-1.21,3.12-2.33,6.45-3.35,10-.58,1.95-1.12,3.97-1.63,6.07-.2.82-.4,1.64-.59,2.49-.65,2.42-1.35,5.08-2.1,7.95-11.54,44.83-32.92,141.27-41.91,179.81-18.87.03-37.71.06-56.56.07-19.36.01-38.72.01-58.09,0,24.65-15.77,58.24-41.25,89.83-80.16,29.05-35.78,47.08-71.41,58.37-100.14,1.4-3.56,2.7-7.03,3.89-10.35,1.01-2.79,1.95-5.5,2.82-8.11,1.18-3.53,2.25-6.89,3.21-10.06h0c.03-.11.05-.18.08-.26,2.62-24.36-1.74-41.82-17.08-55.1-4.43-3.83-9.77-7.33-16.14-10.53-13.99-7.06-32.88-12.76-57.69-17.79l.93-3.62c84.89,26.13,109.62,10.61,127.75-52.21,1.16-3.99,2.29-8.18,3.4-12.57,2.04-8.05,4.04-16.75,6.09-26.1l4.22,1.1c-2.58,8.81-4.92,17.06-6.93,24.82-1,3.83-1.93,7.54-2.77,11.13-8.04,34.47-8.33,58.05,5.96,75.25,3.15,3.81,7.03,7.31,11.69,10.53,11.11,7.71,26.69,13.92,47.76,19.32,5.48,1.4,11.34,2.75,17.59,4.06h.01c1.04.22,2.11.43,3.17.65Z"/>
    </g>
    <path class="cls-3" d="m164.21,630.72c.67-1.9,1.39-2.84,2.17-2.84.44,0,.89,1.17,1.34,3.51,3.57,18.16,12.7,31.32,27.42,39.45,13.26,7.25,32.21,10.87,56.84,10.87,21.95,0,40.51-5.07,55.67-15.21,16.27-10.92,24.41-25.24,24.41-42.96,0-14.49-6.69-24.46-20.06-29.92-5.68-2.34-13.77-4.46-24.24-6.35l-33.43-5.52c-12.04-2.01-21.62-3.9-28.75-5.68-10.03-2.56-18.33-5.63-24.91-9.19-16.27-8.69-24.41-21.79-24.41-39.28,0-6.91,2.01-14.15,6.02-21.73,4.57-8.69,11.14-16.49,19.73-23.4,9.92-7.91,21.9-14.04,35.94-18.39,16.05-5.13,34.27-7.69,54.66-7.69,12.04,0,25.91,1.78,41.62,5.35,16.49,3.79,29.48,8.42,38.95,13.87l-14.38,31.76c-.89,1.67-1.62,2.51-2.17,2.51s-.95-.89-1.17-2.67c0-.33-.06-.78-.17-1.34l-.67-5.68c-2.12-11.59-11.65-20.84-28.59-27.75-13.49-5.68-26.91-8.53-40.29-8.53-8.8,0-17.22.78-25.24,2.34-9.36,1.67-17.55,4.29-24.57,7.86-17.39,8.8-26.08,22.29-26.08,40.45,0,14.71,8.13,25.41,24.41,32.1,6.35,2.67,14.65,5.02,24.91,7.02l43.13,7.02c5.24,1,9.92,1.95,14.04,2.84,10.03,2.34,18.33,5.18,24.91,8.53,16.16,8.02,24.24,20.39,24.24,37.11,0,13.82-4.12,26.19-12.37,37.11-7.36,9.7-17.61,18-30.76,24.91-11.59,6.02-24.69,10.59-39.28,13.71-13.04,2.9-25.58,4.35-37.61,4.35-9.47,0-19.28-.78-29.42-2.34-8.69-1.23-17.66-3.07-26.91-5.52-7.58-1.9-15.32-4.18-23.24-6.85l-17.72-6.52,16.05-37.28Z"/>
    <path class="cls-3" d="m434.69,558.84h.67c4.79-9.03,9.47-16.77,14.04-23.24,5.46-7.58,11.2-13.87,17.22-18.89,13.82-11.7,30.09-17.55,48.81-17.55,23.29,0,42.29,7.63,57,22.9,14.49,15.05,21.73,34.38,21.73,58.01,0,16.27-3.62,31.32-10.87,45.14-6.8,12.93-16.33,24.18-28.59,33.77-24.3,19.06-52.83,28.59-85.59,28.59-8.47,0-17.39-.95-26.75-2.84-7.91-1.67-15.88-3.96-23.91-6.85l-7.02,44.3c-.33,2.9-.5,5.85-.5,8.86,0,9.14,5.63,14.26,16.88,15.38,2.67.33,4.01.89,4.01,1.67,0,1.45-.67,2.17-2.01,2.17-3.9,0-9.7-.28-17.39-.84-7.58-.45-13.32-.67-17.22-.67l-24.24,1.17c-3.12.22-5.91.33-8.36.33-2.23,0-3.34-.73-3.34-2.17,0-.67,1.28-1.34,3.84-2.01,6.46-2.12,10.92-5.24,13.37-9.36,3.34-5.58,6.41-16.94,9.19-34.1l24.57-142.09c1.56-10.59,2.34-18.67,2.34-24.24,0-8.92-3.96-15.1-11.87-18.56-1.67-.44-2.51-1.11-2.51-2.01,0-.56.61-1.17,1.84-1.84l43.13-9.53-8.53,54.5Zm-14.38,101.3c3.01,5.91,9.64,10.92,19.89,15.05,9.92,4.12,20.06,6.19,30.42,6.19,14.93,0,28.53-3.45,40.79-10.36,11.14-6.35,20.78-15.38,28.92-27.08,15.38-22.07,23.07-48.37,23.07-78.9,0-16.83-4.24-30.7-12.7-41.62-9.25-12.04-22.07-18.05-38.45-18.05-11.7,0-22.73,3.4-33.1,10.2-9.14,6.02-17.55,14.38-25.24,25.08-6.58,9.36-12.2,19.95-16.88,31.76-4.12,10.47-6.97,20.56-8.53,30.26l-8.19,57.51Z"/>
    <path class="cls-3" d="m776.38,521.39c18.5,15.05,27.75,34.05,27.75,57,0,31.54-11.59,57.95-34.77,79.24-22.51,20.73-49.65,31.09-81.41,31.09-23.07,0-43.24-7.02-60.51-21.06-18.5-15.05-27.75-34.05-27.75-57,0-31.54,11.53-57.95,34.6-79.24,22.51-20.73,49.65-31.09,81.41-31.09,23.18,0,43.41,7.02,60.68,21.06Zm-100.47-4.51c-10.36,6.24-19.11,15.1-26.25,26.58-6.46,10.25-11.37,22.29-14.71,36.11-3.01,12.48-4.51,25.47-4.51,38.95,0,19.73,4.57,35.11,13.71,46.14,9.81,11.93,24.41,17.89,43.8,17.89,15.05,0,28.31-3.45,39.79-10.36,10.47-6.24,19.28-15.1,26.41-26.58,6.46-10.25,11.31-22.23,14.54-35.94,3.01-12.59,4.51-25.63,4.51-39.12,0-19.73-4.51-35.11-13.54-46.14-9.81-11.93-24.46-17.89-43.97-17.89-14.94,0-28.2,3.45-39.79,10.36Z"/>
    <path class="cls-3" d="m804.13,522.23l1-6.85c11.14-.89,22.29-7.02,33.43-18.39,4.35-4.57,8.64-9.86,12.87-15.88,3.45-5.02,6.74-10.36,9.86-16.05.56-1.11.95-1.78,1.17-2.01.44-.67.95-1,1.5-1,.78,0,1.17.44,1.17,1.34,0,1.11-.17,2.06-.5,2.84l-9.19,47.14h34.27l-2.01,8.86h-33.94l-14.88,109.5c-1,9.47-1.5,16.83-1.5,22.07,0,8.58,1.45,14.88,4.35,18.89,1.78,2.56,5.24,5.07,10.36,7.52l2.67,1c.89.22,1.34.56,1.34,1,0,1.34-.89,2.01-2.67,2.01l-17.89-.67-16.72.67c-2.23,0-4.12-1.61-5.68-4.85-1.45-2.9-2.17-6.07-2.17-9.53,0-7.13.33-12.93,1-17.39l18.89-130.22h-26.75Z"/>
    <path class="cls-3" d="m916.74,477.26c.67-3.45,1-6.41,1-8.86,0-9.47-3.4-15.66-10.2-18.56-2.01-.89-3.01-1.67-3.01-2.34,0-.89.33-1.34,1-1.34l41.29-9.7-29.92,221.67c-.33,2.56-.5,4.68-.5,6.35,0,8.13,3.68,13.37,11.03,15.71,3.68,1.23,5.52,2.4,5.52,3.51,0,1.34-.95,2.01-2.84,2.01l-7.52-.33c-1.45,0-2.73-.06-3.84-.17-7.69-.33-14.6-.5-20.73-.5s-12.7.17-20.06.5l-10.53.5c-1.56,0-2.34-.67-2.34-2.01,0-.56,1-1.5,3.01-2.84,6.13-2.79,10.36-5.68,12.7-8.69,3.12-3.9,5.29-10.09,6.52-18.56l29.42-176.36Z"/>
    <path class="cls-3" d="m978.34,543.46l.5-4.18c0-9.14-3.68-15.1-11.03-17.89-1.56-.78-2.34-1.34-2.34-1.67,0-1,.78-1.67,2.34-2.01l41.12-11.03-19.56,148.28c-.67,4.12-1,7.75-1,10.87,0,4.57,1.78,8.42,5.35,11.53l4.35,3.18c.56.33,1.17.67,1.84,1,.89.44,1.39.73,1.5.84,1.78,1,2.67,1.78,2.67,2.34,0,.67-1,1-3.01,1l-39.12-.84-21.9.84c-1.56,0-2.34-.45-2.34-1.34,0-.78.56-1.45,1.67-2.01,7.24-4.01,11.92-7.52,14.04-10.53,3.34-4.57,5.96-12.82,7.86-24.74l17.05-103.64Zm24.07-94.95c9.14,0,13.71,4.79,13.71,14.38,0,10.92-6.3,16.38-18.89,16.38-9.14,0-13.71-4.79-13.71-14.38,0-10.92,6.29-16.38,18.89-16.38Z"/>
    <path class="cls-3" d="m1033.17,715.47c13.37,20.62,30.98,30.93,52.83,30.93,15.82,0,29.7-3.62,41.62-10.87,10.59-6.35,19.5-15.61,26.75-27.75,6.35-10.48,11.42-23.13,15.21-37.95,3.12-12.37,5.35-26.25,6.69-41.62l-.67-.67c-4.79,10.03-9.47,18.45-14.04,25.24-5.35,7.91-10.98,14.49-16.88,19.73-13.37,11.59-29.98,17.39-49.82,17.39-24.07,0-43.41-7.69-58.01-23.07-13.82-14.6-20.73-32.82-20.73-54.66,0-30.42,12.7-56.73,38.11-78.9,24.07-21.17,51.21-31.76,81.41-31.76,15.15,0,29.7,1.28,43.63,3.84,11.92,2.23,25.08,5.74,39.45,10.53-3.57,18.39-7.08,40.51-10.53,66.37l-10.7,84.75c-2.9,23.74-14.21,43.52-33.94,59.34-21.84,17.49-49.87,26.25-84.09,26.25-10.25,0-22.46-1.17-36.61-3.51-13.93-2.23-22.29-4.29-25.08-6.19l15.38-27.42Zm159.31-193.75c-9.47-4.46-18.33-7.8-26.58-10.03-9.47-2.67-18.56-4.01-27.25-4.01-15.05,0-28.7,3.51-40.96,10.53-11.03,6.46-20.56,15.6-28.59,27.42-14.82,22.07-22.23,48.48-22.23,79.24,0,16.61,4.29,30.37,12.87,41.29,9.25,11.7,21.51,17.55,36.78,17.55,13.71,0,25.97-3.51,36.78-10.53,9.36-6.13,17.66-14.93,24.91-26.41,6.02-9.81,11.31-21.56,15.88-35.27,3.45-10.47,6.57-22.68,9.36-36.61l9.03-53.16Z"/>
    <path class="cls-3" d="m1384.22,584.75c.67-4.79,1.17-8.69,1.5-11.7.33-4.57.5-8.75.5-12.54,0-33.32-15.83-49.98-47.48-49.98-16.83,0-32.6,8.02-47.31,24.07-13.82,14.93-22.23,31.43-25.24,49.48l-12.7,64.69c-.67,4.46-1,8.8-1,13.04,0,9.7,3.51,16.33,10.53,19.89,1.89.89,2.84,1.67,2.84,2.34,0,.56-.45,1-1.34,1.34-.56.22-1.28.33-2.17.33l-15.21-.67c-1.56-.11-3.01-.17-4.35-.17h-17.39l-18.89.84c-1.34,0-2.01-.56-2.01-1.67,0-1,1-1.9,3.01-2.67,11.26-3.34,18.11-14.32,20.56-32.93l25.91-166c.22-1.78.44-3.12.67-4.01.33-3.12.5-5.35.5-6.69,0-9.7-2.62-15.82-7.86-18.39-3.23-1.45-4.85-2.73-4.85-3.84,0-.78.5-1.34,1.5-1.67l1.5-.67,40.12-10.7-19.73,124.04h.67c8.36-17.83,19.61-31.93,33.77-42.29,15.27-11.14,32.32-16.72,51.15-16.72,17.39,0,31.7,4.29,42.96,12.87,12.7,9.81,18.78,23.46,18.22,40.96v7.19l-.67,8.19-11.2,90.61c-.33,2.23-.5,4.24-.5,6.02,0,7.47,3.45,12.26,10.36,14.38,1.78.67,2.67,1.67,2.67,3.01,0,.67-.78,1-2.34,1l-20.9-.84h-19.89l-14.04.84c-2.23,0-3.34-.56-3.34-1.67,0-1.23,1.73-2.62,5.18-4.18,8.25-4.24,14.26-18.5,18.05-42.8l8.19-52.32Z"/>
    <path class="cls-2" d="m328.38,625.44l-.68,2.65c-73.45-22.61-85.47-2.67-100.6,66.62l-3.1-.8c19.98-68.11,19.63-91.55-56.06-106.85l.68-2.65c21.59,5.38,49.37,15.59,68.92,3.54,21.23-11.73,25.21-47.79,31.69-70.17l24.72-107.93,6.56,2.19-28.18,106.53c-20.13,68.11-19.09,91.62,56.06,106.87Z"/>
    <path class="cls-2" d="m1041.86,563.81l.95-2.57c70.73,30.06,84.74,11.46,106.93-55.9l3,1.12c-26.89,65.69-28.96,89.04,44.75,112.06l-.95,2.57c-20.92-7.57-47.5-20.6-68.19-10.63-22.32,9.48-30.01,44.94-38.75,66.53l-35.71,104.81-6.3-2.86,39-103.06c27.04-65.68,28.42-89.16-44.75-112.08Z"/>
  </g>
</svg>